<svg width="69" height="46" viewBox="0 0 69 46" fill="none" xmlns="http://www.w3.org/2000/svg">
<path d="M32.5 24C38.0228 24 42.5 19.5228 42.5 14C42.5 8.47715 38.0228 4 32.5 4C26.9772 4 22.5 8.47715 22.5 14C22.5 19.5228 26.9772 24 32.5 24Z" fill="#FD683D"/>
<path d="M31.1719 14.3298C31.1719 15.6198 32.1619 16.6598 33.3919 16.6598H35.9019C36.9719 16.6598 37.8419 15.7498 37.8419 14.6298C37.8419 13.4098 37.3119 12.9798 36.5219 12.6998L32.4919 11.2998C31.7019 11.0198 31.1719 10.5898 31.1719 9.36984C31.1719 8.24984 32.0419 7.33984 33.1119 7.33984H35.6219C36.8519 7.33984 37.8419 8.37984 37.8419 9.66984" stroke="#1D272F" stroke-width="1.5" stroke-linecap="round" stroke-linejoin="round"/>
<path d="M34.5 6V18" stroke="#1D272F" stroke-width="1.5" stroke-linecap="round" stroke-linejoin="round"/>
<path d="M34.5 22C40.0228 22 44.5 17.5228 44.5 12C44.5 6.47715 40.0228 2 34.5 2C28.9772 2 24.5 6.47715 24.5 12C24.5 17.5228 28.9772 22 34.5 22Z" stroke="#1D272F" stroke-width="1.5" stroke-linecap="round" stroke-linejoin="round"/>
<path d="M6.78 35.496C6.468 35.16 6.164 34.936 5.868 34.824C5.58 34.712 5.288 34.656 4.992 34.656C4.552 34.656 4.152 34.736 3.792 34.896C3.44 35.048 3.136 35.264 2.88 35.544C2.624 35.816 2.424 36.136 2.28 36.504C2.144 36.872 2.076 37.268 2.076 37.692C2.076 38.148 2.144 38.568 2.28 38.952C2.424 39.336 2.624 39.668 2.88 39.948C3.136 40.228 3.44 40.448 3.792 40.608C4.152 40.768 4.552 40.848 4.992 40.848C5.336 40.848 5.668 40.768 5.988 40.608C6.316 40.44 6.62 40.176 6.9 39.816L8.148 40.704C7.764 41.232 7.296 41.616 6.744 41.856C6.192 42.096 5.604 42.216 4.98 42.216C4.324 42.216 3.72 42.112 3.168 41.904C2.624 41.688 2.152 41.388 1.752 41.004C1.36 40.612 1.052 40.144 0.828 39.6C0.604 39.056 0.492 38.452 0.492 37.788C0.492 37.108 0.604 36.492 0.828 35.94C1.052 35.38 1.36 34.904 1.752 34.512C2.152 34.12 2.624 33.82 3.168 33.612C3.72 33.396 4.324 33.288 4.98 33.288C5.556 33.288 6.088 33.392 6.576 33.6C7.072 33.8 7.532 34.144 7.956 34.632L6.78 35.496ZM10.4708 37.044H10.4948C10.6068 36.804 10.8028 36.588 11.0828 36.396C11.3708 36.196 11.7388 36.096 12.1868 36.096C12.5708 36.096 12.8948 36.16 13.1588 36.288C13.4308 36.416 13.6508 36.584 13.8188 36.792C13.9868 37 14.1068 37.24 14.1788 37.512C14.2508 37.784 14.2868 38.068 14.2868 38.364V42H12.8468V39.084C12.8468 38.924 12.8388 38.748 12.8228 38.556C12.8068 38.356 12.7628 38.172 12.6908 38.004C12.6268 37.828 12.5228 37.684 12.3788 37.572C12.2348 37.452 12.0388 37.392 11.7908 37.392C11.5508 37.392 11.3468 37.432 11.1788 37.512C11.0188 37.592 10.8828 37.7 10.7708 37.836C10.6668 37.972 10.5908 38.128 10.5428 38.304C10.4948 38.48 10.4708 38.664 10.4708 38.856V42H9.03084V32.928H10.4708V37.044ZM17.0735 39.624C17.1215 40.056 17.2895 40.392 17.5775 40.632C17.8655 40.872 18.2135 40.992 18.6215 40.992C18.9815 40.992 19.2815 40.92 19.5215 40.776C19.7695 40.624 19.9855 40.436 20.1695 40.212L21.2015 40.992C20.8655 41.408 20.4895 41.704 20.0735 41.88C19.6575 42.056 19.2215 42.144 18.7655 42.144C18.3335 42.144 17.9255 42.072 17.5415 41.928C17.1575 41.784 16.8255 41.58 16.5455 41.316C16.2655 41.052 16.0415 40.736 15.8735 40.368C15.7135 39.992 15.6335 39.576 15.6335 39.12C15.6335 38.664 15.7135 38.252 15.8735 37.884C16.0415 37.508 16.2655 37.188 16.5455 36.924C16.8255 36.66 17.1575 36.456 17.5415 36.312C17.9255 36.168 18.3335 36.096 18.7655 36.096C19.1655 36.096 19.5295 36.168 19.8575 36.312C20.1935 36.448 20.4775 36.648 20.7095 36.912C20.9495 37.176 21.1335 37.504 21.2615 37.896C21.3975 38.28 21.4655 38.724 21.4655 39.228V39.624H17.0735ZM20.0255 38.544C20.0175 38.12 19.8855 37.788 19.6295 37.548C19.3735 37.3 19.0175 37.176 18.5615 37.176C18.1295 37.176 17.7855 37.3 17.5295 37.548C17.2815 37.796 17.1295 38.128 17.0735 38.544H20.0255ZM26.7481 37.968C26.5801 37.792 26.4041 37.652 26.2201 37.548C26.0361 37.444 25.8481 37.392 25.6561 37.392C25.3921 37.392 25.1561 37.44 24.9481 37.536C24.7401 37.632 24.5601 37.76 24.4081 37.92C24.2641 38.08 24.1521 38.264 24.0721 38.472C24.0001 38.68 23.9641 38.896 23.9641 39.12C23.9641 39.344 24.0001 39.56 24.0721 39.768C24.1521 39.976 24.2641 40.16 24.4081 40.32C24.5601 40.48 24.7401 40.608 24.9481 40.704C25.1561 40.8 25.3921 40.848 25.6561 40.848C25.8801 40.848 26.0881 40.804 26.2801 40.716C26.4721 40.62 26.6361 40.484 26.7721 40.308L27.7321 41.34C27.5881 41.484 27.4201 41.608 27.2281 41.712C27.0441 41.816 26.8561 41.9 26.6641 41.964C26.4721 42.028 26.2881 42.072 26.1121 42.096C25.9361 42.128 25.7841 42.144 25.6561 42.144C25.2241 42.144 24.8161 42.072 24.4321 41.928C24.0481 41.784 23.7161 41.58 23.4361 41.316C23.1561 41.052 22.9321 40.736 22.7641 40.368C22.6041 39.992 22.5241 39.576 22.5241 39.12C22.5241 38.664 22.6041 38.252 22.7641 37.884C22.9321 37.508 23.1561 37.188 23.4361 36.924C23.7161 36.66 24.0481 36.456 24.4321 36.312C24.8161 36.168 25.2241 36.096 25.6561 36.096C26.0241 36.096 26.3921 36.168 26.7601 36.312C27.1361 36.448 27.4641 36.668 27.7441 36.972L26.7481 37.968ZM28.6012 32.928H30.0412V38.628L32.2612 36.24H34.1092L31.6372 38.856L34.2652 42H32.3572L30.0652 39.06H30.0412V42H28.6012V32.928ZM38.7293 33.504H41.6813C42.0893 33.504 42.4813 33.544 42.8573 33.624C43.2413 33.696 43.5813 33.824 43.8773 34.008C44.1733 34.192 44.4093 34.44 44.5853 34.752C44.7613 35.064 44.8493 35.46 44.8493 35.94C44.8493 36.556 44.6773 37.072 44.3333 37.488C43.9973 37.904 43.5133 38.156 42.8813 38.244L45.1373 42H43.3133L41.3453 38.4H40.2413V42H38.7293V33.504ZM41.4173 37.104C41.6333 37.104 41.8493 37.096 42.0653 37.08C42.2813 37.056 42.4773 37.008 42.6533 36.936C42.8373 36.856 42.9853 36.74 43.0973 36.588C43.2093 36.428 43.2653 36.208 43.2653 35.928C43.2653 35.68 43.2133 35.48 43.1093 35.328C43.0053 35.176 42.8693 35.064 42.7013 34.992C42.5333 34.912 42.3453 34.86 42.1373 34.836C41.9373 34.812 41.7413 34.8 41.5493 34.8H40.2413V37.104H41.4173ZM49.7558 41.208H49.7198C49.5118 41.536 49.2478 41.776 48.9278 41.928C48.6078 42.072 48.2558 42.144 47.8718 42.144C47.6078 42.144 47.3478 42.108 47.0918 42.036C46.8438 41.964 46.6198 41.856 46.4198 41.712C46.2278 41.568 46.0718 41.388 45.9518 41.172C45.8318 40.956 45.7718 40.704 45.7718 40.416C45.7718 40.104 45.8278 39.84 45.9398 39.624C46.0518 39.4 46.1998 39.216 46.3838 39.072C46.5758 38.92 46.7958 38.8 47.0438 38.712C47.2918 38.624 47.5478 38.56 47.8118 38.52C48.0838 38.472 48.3558 38.444 48.6278 38.436C48.8998 38.42 49.1558 38.412 49.3958 38.412H49.7558V38.256C49.7558 37.896 49.6318 37.628 49.3838 37.452C49.1358 37.268 48.8198 37.176 48.4358 37.176C48.1318 37.176 47.8478 37.232 47.5838 37.344C47.3198 37.448 47.0918 37.592 46.8998 37.776L46.1438 37.02C46.4638 36.692 46.8358 36.456 47.2598 36.312C47.6918 36.168 48.1358 36.096 48.5918 36.096C48.9998 36.096 49.3438 36.144 49.6238 36.24C49.9038 36.328 50.1358 36.444 50.3198 36.588C50.5038 36.732 50.6438 36.9 50.7398 37.092C50.8438 37.276 50.9158 37.464 50.9558 37.656C51.0038 37.848 51.0318 38.036 51.0398 38.22C51.0478 38.396 51.0518 38.552 51.0518 38.688V42H49.7558V41.208ZM49.6718 39.42H49.3718C49.1718 39.42 48.9478 39.428 48.6998 39.444C48.4518 39.46 48.2158 39.5 47.9918 39.564C47.7758 39.62 47.5918 39.708 47.4398 39.828C47.2878 39.94 47.2118 40.1 47.2118 40.308C47.2118 40.444 47.2398 40.56 47.2958 40.656C47.3598 40.744 47.4398 40.82 47.5358 40.884C47.6318 40.948 47.7398 40.996 47.8598 41.028C47.9798 41.052 48.0998 41.064 48.2198 41.064C48.7158 41.064 49.0798 40.948 49.3118 40.716C49.5518 40.476 49.6718 40.152 49.6718 39.744V39.42ZM51.9292 37.464V36.24H53.1172V34.572H54.5572V36.24H56.1412V37.464H54.5572V39.984C54.5572 40.272 54.6092 40.5 54.7132 40.668C54.8252 40.836 55.0412 40.92 55.3612 40.92C55.4892 40.92 55.6292 40.908 55.7812 40.884C55.9332 40.852 56.0532 40.804 56.1412 40.74V41.952C55.9892 42.024 55.8012 42.072 55.5772 42.096C55.3612 42.128 55.1692 42.144 55.0012 42.144C54.6172 42.144 54.3012 42.1 54.0532 42.012C53.8132 41.932 53.6212 41.808 53.4772 41.64C53.3412 41.464 53.2452 41.248 53.1892 40.992C53.1412 40.736 53.1172 40.44 53.1172 40.104V37.464H51.9292ZM58.4172 39.624C58.4652 40.056 58.6332 40.392 58.9212 40.632C59.2092 40.872 59.5572 40.992 59.9652 40.992C60.3252 40.992 60.6252 40.92 60.8652 40.776C61.1132 40.624 61.3292 40.436 61.5132 40.212L62.5452 40.992C62.2092 41.408 61.8332 41.704 61.4172 41.88C61.0012 42.056 60.5652 42.144 60.1092 42.144C59.6772 42.144 59.2692 42.072 58.8852 41.928C58.5012 41.784 58.1692 41.58 57.8892 41.316C57.6092 41.052 57.3852 40.736 57.2172 40.368C57.0572 39.992 56.9772 39.576 56.9772 39.12C56.9772 38.664 57.0572 38.252 57.2172 37.884C57.3852 37.508 57.6092 37.188 57.8892 36.924C58.1692 36.66 58.5012 36.456 58.8852 36.312C59.2692 36.168 59.6772 36.096 60.1092 36.096C60.5092 36.096 60.8732 36.168 61.2012 36.312C61.5372 36.448 61.8212 36.648 62.0532 36.912C62.2932 37.176 62.4772 37.504 62.6052 37.896C62.7412 38.28 62.8092 38.724 62.8092 39.228V39.624H58.4172ZM61.3692 38.544C61.3612 38.12 61.2292 37.788 60.9732 37.548C60.7172 37.3 60.3612 37.176 59.9052 37.176C59.4732 37.176 59.1292 37.3 58.8732 37.548C58.6252 37.796 58.4732 38.128 58.4172 38.544H61.3692ZM67.2278 37.836C66.9478 37.444 66.5718 37.248 66.0998 37.248C65.9078 37.248 65.7198 37.296 65.5358 37.392C65.3518 37.488 65.2598 37.644 65.2598 37.86C65.2598 38.036 65.3358 38.164 65.4878 38.244C65.6398 38.324 65.8318 38.392 66.0638 38.448C66.2958 38.504 66.5438 38.564 66.8078 38.628C67.0798 38.684 67.3318 38.776 67.5638 38.904C67.7958 39.024 67.9878 39.192 68.1398 39.408C68.2918 39.624 68.3678 39.92 68.3678 40.296C68.3678 40.64 68.2918 40.932 68.1398 41.172C67.9958 41.404 67.8038 41.592 67.5638 41.736C67.3318 41.88 67.0678 41.984 66.7718 42.048C66.4758 42.112 66.1798 42.144 65.8838 42.144C65.4358 42.144 65.0238 42.08 64.6478 41.952C64.2718 41.824 63.9358 41.592 63.6398 41.256L64.5998 40.356C64.7838 40.564 64.9798 40.736 65.1878 40.872C65.4038 41 65.6638 41.064 65.9678 41.064C66.0718 41.064 66.1798 41.052 66.2918 41.028C66.4038 41.004 66.5078 40.964 66.6038 40.908C66.6998 40.852 66.7758 40.784 66.8318 40.704C66.8958 40.616 66.9278 40.516 66.9278 40.404C66.9278 40.204 66.8518 40.056 66.6998 39.96C66.5478 39.864 66.3558 39.788 66.1238 39.732C65.8918 39.668 65.6398 39.612 65.3678 39.564C65.1038 39.508 64.8558 39.424 64.6238 39.312C64.3918 39.192 64.1998 39.028 64.0478 38.82C63.8958 38.612 63.8198 38.324 63.8198 37.956C63.8198 37.636 63.8838 37.36 64.0118 37.128C64.1478 36.888 64.3238 36.692 64.5398 36.54C64.7558 36.388 65.0038 36.276 65.2838 36.204C65.5638 36.132 65.8478 36.096 66.1358 36.096C66.5198 36.096 66.8998 36.164 67.2758 36.3C67.6518 36.428 67.9558 36.652 68.1878 36.972L67.2278 37.836Z" fill="#191D31"/>
</svg>
