<svg xmlns="http://www.w3.org/2000/svg" width="32" height="19" viewBox="0 0 32 19" fill="none">
  <path d="M20.5833 17.4168V1.5835L15.8333 1.97933L11.0833 1.5835V17.4168L15.8333 17.021L20.5833 17.4168Z" fill="#FF5F00"/>
  <path d="M12.1062 9.5C12.1062 6.46528 13.5753 3.77361 15.8333 2.03194C14.1738 0.765278 12.079 0 9.79381 0C4.38001 0 0 4.24861 0 9.5C0 14.7514 4.38001 19 9.79381 19C12.079 19 14.1738 18.2347 15.8333 16.9681C13.5753 15.2528 12.1062 12.5347 12.1062 9.5Z" fill="#EB001B"/>
  <path d="M31.6666 9.5C31.6666 14.7514 27.2866 19 21.8728 19C19.5876 19 17.4928 18.2347 15.8333 16.9681C18.1185 15.2264 19.5604 12.5347 19.5604 9.5C19.5604 6.46528 18.0913 3.77361 15.8333 2.03194C17.4928 0.765278 19.5876 0 21.8728 0C27.2866 0 31.6666 4.275 31.6666 9.5Z" fill="#F79E1B"/>
</svg>