<svg xmlns="http://www.w3.org/2000/svg" width="24" height="24" viewBox="0 0 24 24" fill="none">
  <path d="M12.052 1.51331C6.30498 1.50732 1.62022 6.16069 1.62022 11.8916C1.62022 13.8496 2.16767 15.7614 3.21552 17.4163C3.21583 17.4168 3.21614 17.4173 3.21645 17.4177L3.33355 17.6054L2.38885 21.0384L2.15904 21.8736L2.99718 21.6549L6.55311 20.727L6.73393 20.8355L6.73683 20.8373C8.33926 21.7846 10.1746 22.2811 12.0441 22.2871H12.0457H12.0514C17.7979 22.2871 22.4827 17.6341 22.4827 11.903C22.4827 9.12907 21.398 6.52093 19.4305 4.55679C17.4622 2.59186 14.8365 1.51344 12.052 1.51331ZM12.052 1.51331L12.0514 2.01331V1.51331C12.0516 1.51331 12.0518 1.51331 12.052 1.51331ZM0.712308 23.2962L2.17821 17.9731L2.23389 17.7708L2.12866 17.5894C1.12424 15.8578 0.59754 13.8973 0.60303 11.893V11.8916C0.60303 5.61124 5.74066 0.5 12.0514 0.5C15.1175 0.5 17.9932 1.68569 20.151 3.83874L20.1514 3.83919C22.3153 5.99277 23.5053 8.85366 23.4999 11.8964V11.8973C23.4999 18.1776 18.3624 23.289 12.0457 23.289H12.04C10.1235 23.289 8.23971 22.808 6.56466 21.9007L6.39085 21.8065L6.19965 21.8567L0.712308 23.2962Z" fill="white" stroke="white"/>
  <path d="M1.13054 22.8805L2.53928 17.7675L2.59518 17.5646L2.48917 17.3828C1.51969 15.7201 1.01001 13.8281 1.00996 11.8973C1.01555 5.84449 5.96453 0.916016 12.0515 0.916016C15.0082 0.916016 17.7753 2.06141 19.8592 4.13543C21.9425 6.20882 23.0873 8.96719 23.0873 11.9027C23.0873 17.955 18.1331 22.8837 12.0515 22.8837H12.0458C10.1981 22.8837 8.38303 22.4198 6.77101 21.5467L6.59748 21.4527L6.40653 21.5026L1.13054 22.8805Z" fill="url(#paint0_linear_399_1003)" stroke="white"/>
  <path d="M12.052 1.51331C6.30498 1.50732 1.62022 6.16069 1.62022 11.8916C1.62022 13.8496 2.16767 15.7614 3.21552 17.4163C3.21583 17.4168 3.21614 17.4173 3.21645 17.4177L3.33355 17.6054L2.38885 21.0384L2.15904 21.8736L2.99718 21.6549L6.55311 20.727L6.73393 20.8355L6.73683 20.8373C8.33926 21.7846 10.1746 22.2811 12.0441 22.2871H12.0457H12.0514C17.7979 22.2871 22.4827 17.6341 22.4827 11.903C22.4827 9.12907 21.398 6.52093 19.4305 4.55679C17.4622 2.59186 14.8365 1.51344 12.052 1.51331ZM12.052 1.51331L12.0514 2.01331V1.51331C12.0516 1.51331 12.0518 1.51331 12.052 1.51331ZM0.712308 23.2962L2.17821 17.9731L2.23389 17.7708L2.12866 17.5894C1.12424 15.8578 0.59754 13.8973 0.60303 11.893V11.8916C0.60303 5.61124 5.74066 0.5 12.0514 0.5C15.1175 0.5 17.9932 1.68569 20.151 3.83874L20.1514 3.83919C22.3153 5.99277 23.5053 8.85366 23.4999 11.8964V11.8973C23.4999 18.1776 18.3624 23.289 12.0457 23.289H12.04C10.1235 23.289 8.23971 22.808 6.56466 21.9007L6.39085 21.8065L6.19965 21.8567L0.712308 23.2962Z" fill="url(#paint1_linear_399_1003)" stroke="white"/>
  <path d="M8.37863 6.90484L8.37863 6.90485L8.38177 6.90494C8.44478 6.90663 8.46895 6.90981 8.47654 6.91125C8.48752 6.91963 8.53843 6.96538 8.60968 7.12349C8.7374 7.40814 8.94578 7.9138 9.13536 8.37582C9.15156 8.41531 9.16762 8.45445 9.18345 8.49305C9.25935 8.67809 9.33018 8.85076 9.38801 8.9901C9.45005 9.13954 9.50985 9.28218 9.5423 9.34592C9.56171 9.3848 9.56575 9.40322 9.56656 9.40849C9.56596 9.41042 9.56463 9.41409 9.56191 9.41966L10.0113 9.63896L9.56191 9.41966C9.54969 9.44471 9.53857 9.46765 9.52831 9.48881C9.4499 9.6506 9.42191 9.70836 9.33619 9.8068C9.26002 9.89428 9.19525 9.97294 9.13723 10.0434C9.05323 10.1454 8.98339 10.2303 8.91356 10.2998L9.26627 10.6542L8.91356 10.2998C8.9102 10.3031 8.90654 10.3067 8.9026 10.3106C8.83539 10.377 8.68778 10.5228 8.61185 10.7253C8.51341 10.9879 8.55643 11.2585 8.70189 11.5095C8.88344 11.8227 9.51687 12.8518 10.4644 13.6916C11.4891 14.6036 12.4056 14.9962 12.8105 15.1696C12.8819 15.2001 12.9374 15.2239 12.9747 15.2425C13.1566 15.333 13.3811 15.4137 13.6269 15.3848C13.8948 15.3534 14.0873 15.2056 14.2239 15.047C14.3836 14.8616 14.9707 14.1794 15.1975 13.848C15.2019 13.8494 15.2066 13.8508 15.2116 13.8523C15.2343 13.8595 15.2597 13.8681 15.29 13.8788C15.4054 13.9227 15.8096 14.1124 16.2557 14.3271C16.6924 14.5373 17.1317 14.7531 17.2785 14.8261C17.3408 14.8572 17.4 14.8855 17.4512 14.9101C17.4645 14.9164 17.4772 14.9225 17.4892 14.9284C17.5431 14.9543 17.5841 14.9744 17.6175 14.9921C17.6185 15.0399 17.6169 15.102 17.6105 15.1771C17.5926 15.3857 17.5401 15.6654 17.4317 15.972C17.3631 16.1591 17.1147 16.4238 16.733 16.6692C16.3569 16.911 15.9952 17.0427 15.8382 17.0575C15.7733 17.0636 15.7138 17.0707 15.6562 17.0776C15.4391 17.1036 15.2491 17.1263 14.9013 17.0803C14.4473 17.0203 13.7311 16.8384 12.4866 16.3486L12.4865 16.3485C9.84788 15.311 8.08876 12.7345 7.67968 12.1353C7.64413 12.0832 7.61877 12.0461 7.60392 12.0262C7.60208 12.0237 7.60008 12.021 7.59795 12.0182C7.51843 11.9118 7.24199 11.5419 6.98234 11.0335C6.71202 10.5041 6.4826 9.86784 6.4826 9.25113C6.4826 8.07245 7.04474 7.47794 7.33756 7.16826C7.35704 7.14766 7.37533 7.12832 7.39218 7.11015C7.5571 6.93233 7.73609 6.89941 7.82214 6.89941C8.02503 6.89941 8.21667 6.89947 8.37863 6.90484ZM8.47948 6.91199C8.47936 6.91201 8.47862 6.91185 8.4776 6.91147L8.47948 6.91199ZM17.6098 14.9004C17.6098 14.9003 17.6103 14.902 17.6109 14.9058C17.6101 14.9024 17.6097 14.9005 17.6098 14.9004Z" fill="white" stroke="white"/>
  <defs>
    <linearGradient id="paint0_linear_399_1003" x1="12.0022" y1="23.5822" x2="12.0022" y2="0.415205" gradientUnits="userSpaceOnUse">
      <stop stop-color="#20B038"/>
      <stop offset="1" stop-color="#60D66A"/>
    </linearGradient>
    <linearGradient id="paint1_linear_399_1003" x1="12.0022" y1="23.9977" x2="12.0022" y2="0" gradientUnits="userSpaceOnUse">
      <stop stop-color="#F9F9F9"/>
      <stop offset="1" stop-color="white"/>
    </linearGradient>
  </defs>
</svg>